<?xml version="1.0" standalone="no"?>
<!DOCTYPE svg PUBLIC "-//W3C//DTD SVG 20010904//EN"
 "http://www.w3.org/TR/2001/REC-SVG-20010904/DTD/svg10.dtd">
<svg version="1.0" xmlns="http://www.w3.org/2000/svg"
 width="360.000000pt" height="360.000000pt" viewBox="0 0 360.000000 360.000000"
 preserveAspectRatio="xMidYMid meet">
<metadata>
Created by potrace 1.14, written by Peter Selinger 2001-2017
</metadata>
<g transform="translate(0.000000,360.000000) scale(0.100000,-0.100000)"
fill="#000000" stroke="none">
<path d="M1287 3155 c-94 -35 -180 -141 -231 -285 l-31 -85 -3 -475 -3 -475
298 298 298 297 483 0 482 0 0 370 0 370 -627 -1 c-510 0 -635 -3 -666 -14z"/>
<path d="M1318 1973 l-298 -298 0 -623 0 -622 300 0 300 0 0 520 0 520 480 0
480 0 0 304 0 303 -442 -2 c-243 -1 -459 0 -479 2 l-38 6 -3 93 -3 94 -297
-297z"/>
</g>
</svg>
